<svg viewBox="0 0 80 80" width="80" height="80">
    <path
        d="M66.845 33.006a3.74 3.74 0 0 0-.72-4.256 3.841 3.841 0 0 0-5.302 0l-.883.884-1.25-1.25 2-2a3.888 3.888 0 0 1 3.397-1.018 11.343 11.343 0 0 0 9.632-3.172 11.218 11.218 0 0 0 2.406-12.345 1.25 1.25 0 0 0-2.035-.398L68 15.536l-2.945-.588-.59-2.948 6.084-6.086a1.25 1.25 0 0 0-.397-2.039 11.25 11.25 0 0 0-15.52 12.043 3.903 3.903 0 0 1-1.018 3.392l-2 2-8.327-8.329-1.683-3.356a1.25 1.25 0 0 0-.51-.534l-7.949-4.408a1.25 1.25 0 0 0-1.49.208l-1.763 1.763a1.25 1.25 0 0 0-.21 1.49l4.413 7.95c.122.22.308.398.533.511l3.357 1.684 8.327 8.327-2 2a3.889 3.889 0 0 1-3.397 1.018 11.257 11.257 0 0 0-12.04 15.517 1.25 1.25 0 0 0 2.035.398l6.088-6.085 2.945.589.589 2.946-6.085 6.086a1.25 1.25 0 0 0 .397 2.035 11.25 11.25 0 0 0 15.519-12.042 3.904 3.904 0 0 1 1.019-3.393l2-2 1.25 1.25-.882.886a3.74 3.74 0 0 0 4.26 6.026l7.382 7.384a6.25 6.25 0 0 0 8.84-8.839l-7.387-7.386ZM39.61 16.375a1.237 1.237 0 0 0-.322-.234l-3.193-1.601-3.769-6.79.425-.425 6.79 3.769 1.6 3.191c.06.12.139.23.234.324l8.47 8.471-1.77 1.769-8.465-8.474Zm10.016 17.541a6.374 6.374 0 0 0-1.723 5.533 8.756 8.756 0 0 1-10.2 9.926l5.082-5.081a1.251 1.251 0 0 0 .341-1.125l-.89-4.419a1.25 1.25 0 0 0-.985-.985l-4.418-.884a1.25 1.25 0 0 0-1.125.341l-5.082 5.082a8.757 8.757 0 0 1 9.923-10.2 6.46 6.46 0 0 0 5.535-1.723l9.299-9.297a6.375 6.375 0 0 0 1.723-5.533 8.756 8.756 0 0 1 10.2-9.926l-5.082 5.081a1.25 1.25 0 0 0-.341 1.125l.883 4.419a1.25 1.25 0 0 0 .98.98l4.42.884a1.25 1.25 0 0 0 1.124-.341l5.086-5.077a8.759 8.759 0 0 1-9.922 10.2 6.456 6.456 0 0 0-5.535 1.729l-9.293 9.291Zm7.303-3.765 1.25 1.25L56.4 33.17l-1.25-1.25 1.778-1.769Zm-1.404 9.205a1.25 1.25 0 0 1 0-1.767l7.071-7.072a1.251 1.251 0 0 1 1.768 1.77l-7.073 7.07a1.278 1.278 0 0 1-1.772 0h.006Zm16.946 8.108a3.757 3.757 0 0 1-5.303 0l-7.224-7.224 5.304-5.303 7.223 7.223a3.75 3.75 0 0 1 0 5.304Z"
        fill="#AAC8D3"></path>
    <path
        d="M76.435 56.125a4.993 4.993 0 0 0-6.823-1.836l-12.188 7.036a4.955 4.955 0 0 0-2.824-2.036l-18.65-5a8.75 8.75 0 0 0-4.388-.038L25 55.9v-2.15a1.25 1.25 0 0 0-1.25-1.25h-10a1.25 1.25 0 0 0-1.25 1.25V55H3.75a1.25 1.25 0 0 0-1.25 1.25v17.5A1.25 1.25 0 0 0 3.75 75h8.75v1.25a1.25 1.25 0 0 0 1.25 1.25h10A1.25 1.25 0 0 0 25 76.25v-1.728l1.608.804a8.783 8.783 0 0 0 3.912.924h18.721a8.764 8.764 0 0 0 4.375-1.172l21-12.126a5.014 5.014 0 0 0 1.819-6.827ZM5 72.5v-15h7.5v15H5ZM22.5 75H15V55h7.5v20Zm50.862-14.208-21 12.126a6.25 6.25 0 0 1-3.125.837H30.52a6.285 6.285 0 0 1-2.794-.66L25 71.728v-13.25l7.167-1.793a6.282 6.282 0 0 1 3.136.026l18.65 5a2.501 2.501 0 0 1 .628 4.604 2.5 2.5 0 0 1-1.922.225L37.75 62.542a1.25 1.25 0 0 0-.646 2.415l14.906 4c.425.114.863.172 1.303.173a4.94 4.94 0 0 0 4.956-5.396l12.59-7.269a2.544 2.544 0 0 1 3.407.915 2.51 2.51 0 0 1-.904 3.412Z"
        fill="#AAC8D3"></path>
</svg>
